<svg xmlns="http://www.w3.org/2000/svg" viewBox="0 0 48 48" fill="none">
  <defs>
    <linearGradient id="g1" x1="6" y1="8" x2="42" y2="42" gradientUnits="userSpaceOnUse">
      <stop offset="0" stop-color="#54C8FF"/>
      <stop offset="1" stop-color="#1B2B8F"/>
    </linearGradient>
    <linearGradient id="g2" x1="10" y1="13" x2="38" y2="38" gradientUnits="userSpaceOnUse">
      <stop offset="0" stop-color="#35F0A0"/>
      <stop offset="1" stop-color="#4F86FF"/>
    </linearGradient>
  </defs>
  <rect x="7" y="10" width="34" height="31" rx="5" fill="url(#g1)" opacity=".85"/>
  <rect x="7" y="10" width="34" height="9" rx="5" fill="url(#g2)" opacity=".9"/>
  <path d="M7 17h34v5H7z" fill="#0D1B5A" opacity=".16"/>
  <rect x="14" y="6" width="4" height="9" rx="2" fill="#1B2B8F" opacity=".65"/>
  <rect x="30" y="6" width="4" height="9" rx="2" fill="#1B2B8F" opacity=".65"/>
  <rect x="13" y="25" width="6" height="5" rx="1.5" fill="#EAF9FF" opacity=".58"/>
  <rect x="22" y="25" width="6" height="5" rx="1.5" fill="#EAF9FF" opacity=".72"/>
  <rect x="31" y="25" width="6" height="5" rx="1.5" fill="#EAF9FF" opacity=".58"/>
  <rect x="13" y="33" width="6" height="5" rx="1.5" fill="#EAF9FF" opacity=".58"/>
  <rect x="22" y="33" width="6" height="5" rx="1.5" fill="#EAF9FF" opacity=".58"/>
  <rect x="31" y="33" width="6" height="5" rx="1.5" fill="#35F0A0" opacity=".72"/>
</svg>
