<svg xmlns="http://www.w3.org/2000/svg" viewBox="0 0 48 48" fill="none">
  <defs>
    <linearGradient id="g1" x1="4" y1="4" x2="44" y2="44" gradientUnits="userSpaceOnUse">
      <stop offset="0" stop-color="#3BB3FF"/>
      <stop offset="1" stop-color="#1B2B8F"/>
    </linearGradient>
    <linearGradient id="g2" x1="4" y1="4" x2="44" y2="44" gradientUnits="userSpaceOnUse">
      <stop offset="0" stop-color="#35F0A0"/>
      <stop offset="1" stop-color="#7B4DFF"/>
    </linearGradient>
  </defs>
  <!-- Head -->
  <circle cx="24" cy="16" r="9" fill="url(#g1)" opacity=".85"/>
  <!-- Cap visor -->
  <path d="M14 14h20v2a2 2 0 0 1-2 2H16a2 2 0 0 1-2-2v-2z" fill="url(#g2)" opacity=".8"/>
  <!-- Cap top -->
  <path d="M16 14c0-4 3.5-6 8-6s8 2 8 6H16z" fill="url(#g2)" opacity=".9"/>
  <!-- Body/shoulders -->
  <path d="M8 44c0-9 7-16 16-16s16 7 16 16H8z" fill="url(#g1)" opacity=".85"/>
  <!-- Collar line -->
  <path d="M18 28l6 5 6-5" stroke="url(#g2)" stroke-width="1.5" fill="none" opacity=".7"/>
  <!-- Highlight -->
  <ellipse cx="21" cy="13" rx="2" ry="1.5" fill="#fff" opacity=".15"/>
</svg>
