<svg xmlns="http://www.w3.org/2000/svg" viewBox="0 0 48 48" fill="none">
  <defs>
    <linearGradient id="fur" x1="8" y1="7" x2="40" y2="42" gradientUnits="userSpaceOnUse">
      <stop offset="0" stop-color="#FFB45B"/>
      <stop offset="1" stop-color="#E85B2E"/>
    </linearGradient>
    <linearGradient id="cool" x1="12" y1="14" x2="36" y2="40" gradientUnits="userSpaceOnUse">
      <stop offset="0" stop-color="#57C7FF"/>
      <stop offset="1" stop-color="#1B2B8F"/>
    </linearGradient>
  </defs>
  <path d="M8 10l10 6 6-4 6 4 10-6-3 18c-.9 6-6.3 11-13 11S11.9 34 11 28L8 10z" fill="url(#fur)" opacity=".92"/>
  <path d="M12 15l7 9-8 3-3-17 4 5zM36 15l-7 9 8 3 3-17-4 5z" fill="url(#cool)" opacity=".42"/>
  <path d="M16 25c2.5 1.4 5.1 2.1 8 2.1s5.5-.7 8-2.1l-4.1 10.7c-1.2.8-2.5 1.3-3.9 1.3s-2.7-.5-3.9-1.3L16 25z" fill="#F7FBFF" opacity=".88"/>
  <path d="M20 27l4 4 4-4-2.4 6.2c-.5.4-1 .6-1.6.6s-1.1-.2-1.6-.6L20 27z" fill="#22314A" opacity=".86"/>
  <circle cx="18.5" cy="23" r="2" fill="#20304A"/>
  <circle cx="29.5" cy="23" r="2" fill="#20304A"/>
  <path d="M21 31.5c1.9 1 4.1 1 6 0" stroke="#20304A" stroke-width="1.4" stroke-linecap="round" opacity=".6"/>
</svg>
