<svg xmlns="http://www.w3.org/2000/svg" viewBox="0 0 64 64" fill="none">
  <defs>
    <linearGradient id="pg" x1="16" y1="10" x2="52" y2="54" gradientUnits="userSpaceOnUse">
      <stop offset="0" stop-color="#9AD8FF"/>
      <stop offset="1" stop-color="#4E88FF"/>
    </linearGradient>
    <linearGradient id="drop" x1="34" y1="32" x2="50" y2="52" gradientUnits="userSpaceOnUse">
      <stop offset="0" stop-color="#FFD766"/>
      <stop offset="1" stop-color="#FF9C2A"/>
    </linearGradient>
  </defs>
  <rect x="14" y="10" width="28" height="44" rx="7" fill="url(#pg)"/>
  <rect x="19" y="16" width="18" height="11" rx="3" fill="#EAF7FF" opacity=".9"/>
  <path d="M42 19h5c2.761 0 5 2.239 5 5v19c0 2.209-1.791 4-4 4s-4-1.791-4-4v-8h3v8a1 1 0 102 0V24a2 2 0 00-2-2h-5v-3z" fill="#2D4F97"/>
  <path d="M42 30h4v4h-4z" fill="#1F3D7A"/>
  <path d="M42 43c0-4.2 3.4-7.6 3.4-10.4 0 2.8 3.4 6.2 3.4 10.4a3.4 3.4 0 11-6.8 0z" fill="url(#drop)"/>
</svg>
