<svg id="Ebene_1" data-name="Ebene 1" xmlns="http://www.w3.org/2000/svg" viewBox="0 0 221.19 49.81"><defs><style>.cls-1,.cls-2{fill:#fff;}.cls-1{fill-rule:evenodd;}</style></defs><title>logo</title><path class="cls-1" d="M172.81.9h45c3.1,0,4.32,2.16,2.73,4.82l-1.32,2.21H177.93a21.49,21.49,0,0,0-4.75-6.69ZM171.61,36h25.06a11,11,0,0,0,8.51-4.82L206.51,29H177.44a21.34,21.34,0,0,1-4.26,5.68Q172.42,35.4,171.61,36ZM179.86,15h35.08l-4.22,7h-31a26.08,26.08,0,0,0,.3-4A26.52,26.52,0,0,0,179.86,15ZM49.32.9H25.09a11,11,0,0,0-8.51,4.82L15.25,7.93H44.13a21.48,21.48,0,0,1,4.7-6.58ZM50.25,36H4c-3.1,0-4.32-2.16-2.73-4.82L2.59,29H44.51a21.36,21.36,0,0,0,4.32,5.79Q49.51,35.45,50.25,36ZM42.15,15H11L6.81,22H42.26A26.12,26.12,0,0,1,42,18.07,26.48,26.48,0,0,1,42.15,15Z"/><path class="cls-1" d="M89.45,15.69h3.6q.82,0,1.74-.06a5.46,5.46,0,0,0,1.66-.35,2.87,2.87,0,0,0,1.23-.92,2.79,2.79,0,0,0,.49-1.76,2.92,2.92,0,0,0-.43-1.68,2.87,2.87,0,0,0-1.1-1,4.87,4.87,0,0,0-1.53-.45,12.45,12.45,0,0,0-1.68-.12h-4ZM83.35,4.24H94.07a18.93,18.93,0,0,1,4,.41A9.52,9.52,0,0,1,101.4,6a6.82,6.82,0,0,1,2.27,2.58,8.72,8.72,0,0,1,.84,4,8.11,8.11,0,0,1-1.53,5,6.87,6.87,0,0,1-4.46,2.6l7,11.68H98.25L92.46,20.85h-3V31.9h-6.1ZM77,30a22.11,22.11,0,0,1-5.63,2,28.64,28.64,0,0,1-6,.63,17.09,17.09,0,0,1-6-1,13.71,13.71,0,0,1-4.73-2.91,13.2,13.2,0,0,1-3.11-4.59,15.61,15.61,0,0,1-1.12-6,15.61,15.61,0,0,1,1.12-6,13.19,13.19,0,0,1,3.11-4.59,13.71,13.71,0,0,1,4.73-2.91,17.09,17.09,0,0,1,6-1,22.17,22.17,0,0,1,6.12.8,12,12,0,0,1,4.91,2.75l-4.3,4.69a8.58,8.58,0,0,0-2.82-2,10,10,0,0,0-3.91-.66,9.07,9.07,0,0,0-3.54.66,8,8,0,0,0-2.72,1.86,8.14,8.14,0,0,0-1.74,2.83,10.18,10.18,0,0,0-.61,3.56,10.13,10.13,0,0,0,.61,3.58,8.19,8.19,0,0,0,1.74,2.81,8,8,0,0,0,2.72,1.86A9.07,9.07,0,0,0,65.4,27a11.68,11.68,0,0,0,3.44-.45,13,13,0,0,0,2.31-.92V21.12h-5V15.49H77Z"/><path class="cls-1" d="M148,18a10.14,10.14,0,0,0,.61,3.57,8.18,8.18,0,0,0,1.74,2.81,8,8,0,0,0,2.72,1.86,9.77,9.77,0,0,0,7.08,0,8,8,0,0,0,2.72-1.86,8.18,8.18,0,0,0,1.74-2.81,10.13,10.13,0,0,0,.61-3.57,10.18,10.18,0,0,0-.61-3.56,8.15,8.15,0,0,0-1.74-2.83,7.94,7.94,0,0,0-2.72-1.86,9.77,9.77,0,0,0-7.08,0,7.94,7.94,0,0,0-2.72,1.86,8.15,8.15,0,0,0-1.74,2.83A10.19,10.19,0,0,0,148,18Zm-6.34,0a15.6,15.6,0,0,1,1.12-6,13.2,13.2,0,0,1,3.11-4.59,13.71,13.71,0,0,1,4.73-2.91,18.14,18.14,0,0,1,12,0,13.71,13.71,0,0,1,4.73,2.91,13.2,13.2,0,0,1,3.11,4.59,15.6,15.6,0,0,1,1.11,6,15.6,15.6,0,0,1-1.11,6,13.2,13.2,0,0,1-3.11,4.59,13.71,13.71,0,0,1-4.73,2.91,18.14,18.14,0,0,1-12,0,13.71,13.71,0,0,1-4.73-2.91A13.2,13.2,0,0,1,142.77,24,15.6,15.6,0,0,1,141.66,18Z"/><path class="cls-1" d="M114.52,18.07a10.14,10.14,0,0,0,.61,3.58,8.19,8.19,0,0,0,1.74,2.81,8,8,0,0,0,2.72,1.86,9.77,9.77,0,0,0,7.08,0,8,8,0,0,0,2.72-1.86,8.19,8.19,0,0,0,1.74-2.81,10.14,10.14,0,0,0,.61-3.58,10.18,10.18,0,0,0-.61-3.56,8.15,8.15,0,0,0-1.74-2.83,8,8,0,0,0-2.72-1.86,9.77,9.77,0,0,0-7.08,0,8,8,0,0,0-2.72,1.86,8.15,8.15,0,0,0-1.74,2.83A10.18,10.18,0,0,0,114.52,18.07Zm-6.34,0a15.61,15.61,0,0,1,1.12-6,13.19,13.19,0,0,1,3.11-4.59,13.7,13.7,0,0,1,4.73-2.91,18.14,18.14,0,0,1,12,0,13.71,13.71,0,0,1,4.73,2.91A13.19,13.19,0,0,1,137,12.06a15.61,15.61,0,0,1,1.12,6,15.61,15.61,0,0,1-1.12,6,13.2,13.2,0,0,1-3.11,4.59,13.71,13.71,0,0,1-4.73,2.91,18.14,18.14,0,0,1-12,0,13.71,13.71,0,0,1-4.73-2.91,13.19,13.19,0,0,1-3.11-4.59A15.61,15.61,0,0,1,108.18,18.07Z"/><path class="cls-2" d="M51.77,43.22a2,2,0,0,0-.75-.59,2.23,2.23,0,0,0-.93-.21,2.51,2.51,0,0,0-1.07.22,2.46,2.46,0,0,0-.82.6,2.76,2.76,0,0,0-.53.9,3.23,3.23,0,0,0-.19,1.11,3.05,3.05,0,0,0,.18,1,2.61,2.61,0,0,0,.51.87,2.39,2.39,0,0,0,.82.59,2.64,2.64,0,0,0,1.09.22,2.17,2.17,0,0,0,1.05-.25,2.26,2.26,0,0,0,.77-.69l.8.6a3.19,3.19,0,0,1-.28.31,2.76,2.76,0,0,1-.52.4,3.69,3.69,0,0,1-.78.35,3.35,3.35,0,0,1-1.06.15,3.44,3.44,0,0,1-1.49-.31,3.65,3.65,0,0,1-2.09-3.29,4.08,4.08,0,0,1,.27-1.49,3.52,3.52,0,0,1,.74-1.18,3.32,3.32,0,0,1,1.15-.77,3.84,3.84,0,0,1,1.48-.28,3.61,3.61,0,0,1,1.35.27,2.53,2.53,0,0,1,1.09.82Z"/><path class="cls-2" d="M59,41.72h.86l3,7h-1.1L61,47H57.73L57,48.68h-1.1Zm1.69,4.42-1.3-3.2h0l-1.32,3.2Z"/><path class="cls-2" d="M66.73,41.72h2.45a2.87,2.87,0,0,1,1.1.18,1.87,1.87,0,0,1,.68.46,1.58,1.58,0,0,1,.35.63,2.49,2.49,0,0,1,.1.67,1.8,1.8,0,0,1-.12.64,1.82,1.82,0,0,1-.34.56,1.94,1.94,0,0,1-.54.42,1.88,1.88,0,0,1-.71.21l2,3.18H70.5l-1.77-3.07H67.68v3.07h-.94Zm.94,3.07h1.24a3.38,3.38,0,0,0,.55,0,1.47,1.47,0,0,0,.48-.16.89.89,0,0,0,.34-.34,1.36,1.36,0,0,0,0-1.15.89.89,0,0,0-.34-.34,1.47,1.47,0,0,0-.48-.16,3.38,3.38,0,0,0-.55,0H67.68Z"/><path class="cls-2" d="M81.65,44.79v3.43a3.17,3.17,0,0,1-.58.28,6.18,6.18,0,0,1-.67.2,5.73,5.73,0,0,1-.71.12,6.22,6.22,0,0,1-.67,0,4,4,0,0,1-1.58-.3,3.39,3.39,0,0,1-1.9-2,3.93,3.93,0,0,1-.25-1.4,3.82,3.82,0,0,1,.27-1.45,3.57,3.57,0,0,1,.75-1.16,3.41,3.41,0,0,1,1.15-.77,3.75,3.75,0,0,1,1.47-.28,4.34,4.34,0,0,1,1.57.24,2.9,2.9,0,0,1,1,.66l-.67.72a2.48,2.48,0,0,0-.91-.58,3.15,3.15,0,0,0-1-.16,2.53,2.53,0,0,0-1.91.82,2.62,2.62,0,0,0-.53.88,3.09,3.09,0,0,0-.19,1.08,2.88,2.88,0,0,0,.21,1.1,2.72,2.72,0,0,0,.57.88,2.63,2.63,0,0,0,.86.59A2.68,2.68,0,0,0,79,48a4.64,4.64,0,0,0,.95-.09,2.66,2.66,0,0,0,.76-.27V45.67H79.17v-.89Z"/><path class="cls-2" d="M89.55,48.86a3.75,3.75,0,0,1-1.47-.28,3.41,3.41,0,0,1-1.15-.77,3.57,3.57,0,0,1-.75-1.16,4,4,0,0,1,0-2.89,3.57,3.57,0,0,1,.75-1.16,3.41,3.41,0,0,1,1.15-.77,4,4,0,0,1,2.93,0,3.41,3.41,0,0,1,1.15.77,3.57,3.57,0,0,1,.75,1.16,4,4,0,0,1,0,2.89,3.57,3.57,0,0,1-.75,1.16,3.41,3.41,0,0,1-1.15.77A3.76,3.76,0,0,1,89.55,48.86Zm0-.89a2.53,2.53,0,0,0,1.91-.82,2.63,2.63,0,0,0,.53-.88,3.2,3.2,0,0,0,0-2.15,2.63,2.63,0,0,0-.53-.88,2.61,2.61,0,0,0-3.82,0,2.62,2.62,0,0,0-.53.88,3.2,3.2,0,0,0,0,2.15,2.62,2.62,0,0,0,.53.88,2.53,2.53,0,0,0,1.91.82Z"/><path class="cls-2" d="M103.24,41.72h.94V47.8h3.2v.89h-4.14Z"/><path class="cls-2" d="M114.52,48.86a3.76,3.76,0,0,1-1.47-.28,3.41,3.41,0,0,1-1.15-.77,3.57,3.57,0,0,1-.75-1.16,4,4,0,0,1,0-2.89,3.57,3.57,0,0,1,.75-1.16,3.41,3.41,0,0,1,1.15-.77,4,4,0,0,1,2.93,0,3.41,3.41,0,0,1,1.15.77,3.57,3.57,0,0,1,.75,1.16,4,4,0,0,1,0,2.89,3.57,3.57,0,0,1-.75,1.16,3.41,3.41,0,0,1-1.15.77A3.75,3.75,0,0,1,114.52,48.86Zm0-.89a2.53,2.53,0,0,0,1.91-.82,2.63,2.63,0,0,0,.53-.88,3.2,3.2,0,0,0,0-2.15,2.63,2.63,0,0,0-.53-.88,2.61,2.61,0,0,0-3.82,0,2.62,2.62,0,0,0-.53.88,3.2,3.2,0,0,0,0,2.15,2.62,2.62,0,0,0,.53.88,2.53,2.53,0,0,0,1.91.82Z"/><path class="cls-2" d="M128.42,44.79v3.43a3.17,3.17,0,0,1-.58.28,6.18,6.18,0,0,1-.67.2,5.73,5.73,0,0,1-.71.12,6.22,6.22,0,0,1-.67,0,4,4,0,0,1-1.58-.3,3.39,3.39,0,0,1-1.9-2,3.93,3.93,0,0,1-.25-1.4,3.82,3.82,0,0,1,.27-1.45,3.57,3.57,0,0,1,.75-1.16,3.41,3.41,0,0,1,1.15-.77,3.76,3.76,0,0,1,1.47-.28,4.34,4.34,0,0,1,1.57.24,2.9,2.9,0,0,1,1,.66l-.67.72a2.48,2.48,0,0,0-.91-.58,3.15,3.15,0,0,0-1-.16,2.53,2.53,0,0,0-1.91.82,2.62,2.62,0,0,0-.53.88,3.09,3.09,0,0,0-.19,1.08,2.88,2.88,0,0,0,.21,1.1,2.72,2.72,0,0,0,.57.88,2.63,2.63,0,0,0,.86.59,2.69,2.69,0,0,0,1.07.21,4.64,4.64,0,0,0,.95-.09,2.66,2.66,0,0,0,.76-.27V45.67h-1.54v-.89Z"/><path class="cls-2" d="M133.12,41.72h.94v7h-.94Z"/><path class="cls-2" d="M139,47.22a1.55,1.55,0,0,0,.65.57,2,2,0,0,0,.82.18,1.67,1.67,0,0,0,.48-.07,1.46,1.46,0,0,0,.45-.22,1.21,1.21,0,0,0,.33-.36,1,1,0,0,0,.13-.5.75.75,0,0,0-.26-.61,2.22,2.22,0,0,0-.63-.35q-.38-.14-.83-.28a3.35,3.35,0,0,1-.83-.37,2,2,0,0,1-.63-.63,2,2,0,0,1-.26-1.08,1.86,1.86,0,0,1,.55-1.28,2.31,2.31,0,0,1,.73-.48,2.73,2.73,0,0,1,1.08-.19,3.76,3.76,0,0,1,1.09.16,1.88,1.88,0,0,1,.91.64l-.77.7a1.28,1.28,0,0,0-.5-.44,1.59,1.59,0,0,0-.74-.17,1.79,1.79,0,0,0-.65.1,1.17,1.17,0,0,0-.42.27.94.94,0,0,0-.22.35,1.07,1.07,0,0,0-.06.34.88.88,0,0,0,.26.68,2,2,0,0,0,.63.38,7.64,7.64,0,0,0,.83.27,3.54,3.54,0,0,1,.83.33,1.93,1.93,0,0,1,.63.57,1.68,1.68,0,0,1,.26,1,2.08,2.08,0,0,1-.19.9,2,2,0,0,1-.52.68,2.29,2.29,0,0,1-.77.42,3,3,0,0,1-.94.15,3.43,3.43,0,0,1-1.27-.24,2.09,2.09,0,0,1-1-.73Z"/><path class="cls-2" d="M148.74,42.6H146.5v-.89h5.43v.89h-2.24v6.08h-.94Z"/><path class="cls-2" d="M155.91,41.72h.94v7h-.94Z"/><path class="cls-2" d="M166.48,43.22a2,2,0,0,0-.75-.59,2.23,2.23,0,0,0-.93-.21,2.51,2.51,0,0,0-1.07.22,2.46,2.46,0,0,0-.82.6,2.76,2.76,0,0,0-.53.9,3.23,3.23,0,0,0-.19,1.11,3.05,3.05,0,0,0,.18,1,2.61,2.61,0,0,0,.51.87,2.39,2.39,0,0,0,.82.59,2.64,2.64,0,0,0,1.09.22,2.17,2.17,0,0,0,1.05-.25,2.26,2.26,0,0,0,.77-.69l.8.6a3.18,3.18,0,0,1-.28.31,2.76,2.76,0,0,1-.52.4,3.69,3.69,0,0,1-.78.35,3.35,3.35,0,0,1-1.06.15,3.44,3.44,0,0,1-1.49-.31,3.65,3.65,0,0,1-2.09-3.29,4.08,4.08,0,0,1,.27-1.49,3.52,3.52,0,0,1,.74-1.18,3.32,3.32,0,0,1,1.15-.77,3.84,3.84,0,0,1,1.48-.28,3.61,3.61,0,0,1,1.35.27,2.53,2.53,0,0,1,1.09.82Z"/><path class="cls-2" d="M171,47.22a1.55,1.55,0,0,0,.65.57,2,2,0,0,0,.82.18,1.67,1.67,0,0,0,.48-.07,1.46,1.46,0,0,0,.45-.22,1.21,1.21,0,0,0,.33-.36,1,1,0,0,0,.13-.5.75.75,0,0,0-.26-.61,2.22,2.22,0,0,0-.63-.35q-.38-.14-.83-.28a3.35,3.35,0,0,1-.83-.37,2,2,0,0,1-.63-.63,2,2,0,0,1-.26-1.08,1.86,1.86,0,0,1,.55-1.28,2.31,2.31,0,0,1,.73-.48,2.73,2.73,0,0,1,1.08-.19,3.76,3.76,0,0,1,1.09.16,1.88,1.88,0,0,1,.91.64l-.77.7a1.28,1.28,0,0,0-.5-.44,1.59,1.59,0,0,0-.74-.17,1.79,1.79,0,0,0-.65.1,1.17,1.17,0,0,0-.42.27.94.94,0,0,0-.22.35,1.07,1.07,0,0,0-.06.34.88.88,0,0,0,.26.68,2,2,0,0,0,.63.38,7.64,7.64,0,0,0,.83.27,3.54,3.54,0,0,1,.83.33,1.93,1.93,0,0,1,.63.57,1.68,1.68,0,0,1,.26,1,2.08,2.08,0,0,1-.19.9,2,2,0,0,1-.52.68,2.29,2.29,0,0,1-.77.42,3,3,0,0,1-.94.15,3.43,3.43,0,0,1-1.27-.24,2.09,2.09,0,0,1-1-.73Z"/></svg>